# xmcd
#
# Track frame offsets:
#	150
#	10467
#	24867
#	40475
#	51912
#	61995
#	73677
#	87890
#	104185
#	116165
#	131410
#	145170
#	154462
#	169725
#	178315
#	190892
#	203297
#	216737
#	226970
#	239005
#	252107
#	261214
#	274012
#	285402
#	297612
#	306732
#	317526
#
# Disc length: 4408 seconds
#
# Revision: 0
# Processed by: cddbd v1.5.2PL0 Copyright (c) Steve Scherf et al.
# Submitted via: EasyCDDAExtractor 12.0.1.1
#
DISCID=aa11361b
DTITLE=Mac Wiseman - The Mac Wiseman Story  (CMH 2001)
DYEAR=1900
DGENRE=Bluegrass
TTITLE0=Love Letters In The Sand
TTITLE1=Little Blossom
TTITLE2=I've Got No Use For The Women
TTITLE3=Dark Hollow
TTITLE4=The Wreck Of The Old 97
TTITLE5=The Ballad Of The Lawson Family
TTITLE6=May I Sleep In Your Barn Tonight, Mister?
TTITLE7=Bringing Mary Home
TTITLE8=The Girl In The Blue Velvet Band
TTITLE9=I'll Be All Smiles Tonight
TTITLE10=I Wonder How The Old Folks Are At Home
TTITLE11=Jimmie Brown, The Newsboy
TTITLE12=Little Box Of Pine
TTITLE13=Remembering
TTITLE14=These Hands
TTITLE15=The Baggage Coach Ahead
TTITLE16=I Still Write Your Name In The Sand
TTITLE17=Six More Miles
TTITLE18=Tis Sweet To Be Remembered
TTITLE19=Dreaming Of A Little Cabin
TTITLE20=Midnight Flyer
TTITLE21=Shackles And Chains
TTITLE22=Four Walls Around Me
TTITLE23=I'm A Stranger Here
TTITLE24=You're The Girl Of My Dreams
TTITLE25=Family Bible
TTITLE26=Mother Maybelle
EXTD=
EXTT0=
EXTT1=
EXTT2=
EXTT3=
EXTT4=
EXTT5=
EXTT6=
EXTT7=
EXTT8=
EXTT9=
EXTT10=
EXTT11=
EXTT12=
EXTT13=
EXTT14=
EXTT15=
EXTT16=
EXTT17=
EXTT18=
EXTT19=
EXTT20=
EXTT21=
EXTT22=
EXTT23=
EXTT24=
EXTT25=
EXTT26=
PLAYORDER=
